<svg id="Layer_1" data-name="Layer 1" xmlns="http://www.w3.org/2000/svg" xmlns:xlink="http://www.w3.org/1999/xlink" viewBox="0 0 333.16 321.08"><defs><linearGradient id="linear-gradient" x1="180.62" y1="120.26" x2="35.34" y2="30.73" gradientTransform="matrix(1, 0, 0, -1, 0, 352)" gradientUnits="userSpaceOnUse"><stop offset="0.01"/><stop offset="0.08" stop-opacity="0.69"/><stop offset="0.21" stop-opacity="0.32"/><stop offset="1" stop-opacity="0"/></linearGradient></defs><title>13</title><path d="M195.17,16.7C151.84,22.44,110.92,48.61,90,87.22c-6,11.11-10.51,23-17,33.86-7.28,12-17,22.46-24.66,34.23-23.23,35.4-25.27,82.61-8.39,121,12.72,28.95,37,45.81,68.71,45.93,15.61.05,30.23-5.45,45.54-6.2,21.13-1,43.32,5.75,63.62,10.73,22.68,5.56,45.82,11,69.14,9.57s47.23-10.67,61.14-29.43c13.77-18.56,15.8-43.51,12.57-66.39S349.49,195.69,345.24,173c-4.9-26.25-5-53.63-14.3-78.65C316.68,56,280.86,27.49,241,18.56A130.54,130.54,0,0,0,195.17,16.7Z" transform="translate(-28.85 -15.5)" fill="#a8d9f9" opacity="0.18" style="isolation:isolate"/><path d="M261.82,68.38V272.53A17.84,17.84,0,0,1,244,290.36H155.63a17.83,17.83,0,0,1-17.83-17.83V68.38a17.83,17.83,0,0,1,17.82-17.84H244a17.83,17.83,0,0,1,17.82,17.84Z" transform="translate(-28.85 -15.5)" fill="#a8d9f9"/><rect x="111.39" y="38.07" width="119.13" height="233.39" rx="17.24" fill="#473f47"/><path d="M256.13,72.77V265.38a16.47,16.47,0,0,1-16.63,16.3H160.19a16.74,16.74,0,0,1-8.27-2.16,16.22,16.22,0,0,1-8.38-14.14V72.77a16.48,16.48,0,0,1,16.65-16.3h13.4v2.37a7.88,7.88,0,0,0,5,7.17,8.34,8.34,0,0,0,3,.58h36.84a8,8,0,0,0,8-7.88V56.47h13A16.8,16.8,0,0,1,251,61,16.08,16.08,0,0,1,256.13,72.77Z" transform="translate(-28.85 -15.5)" fill="#a8d9f9"/><path d="M256.13,164.16V220.4H207.45a5.07,5.07,0,0,1-5.08-5.08h0V169.25a5.07,5.07,0,0,1,5.07-5.09h48.69Z" transform="translate(-28.85 -15.5)" fill="#020202" opacity="0.1" style="isolation:isolate"/><path d="M116.6,212h36.27a2.37,2.37,0,0,1,2.37,2.37h0a2.37,2.37,0,0,1-2.37,2.37H116.6a2.37,2.37,0,0,1-2.37-2.37h0A2.37,2.37,0,0,1,116.6,212Z" transform="translate(-28.85 -15.5)" fill="#473f47"/><polygon points="93.62 183.82 92.53 190.94 95.53 191.29 98.79 183.75 93.62 183.82" fill="#fcbdba"/><path d="M125.27,205.74a2.41,2.41,0,0,1-.37-.41,1.25,1.25,0,0,1-1,.13l-1.49-.26a2.51,2.51,0,0,1-.77-.21.11.11,0,0,0-.11,0h0l-.33.62a9.15,9.15,0,0,0-.93,3.51,32.44,32.44,0,0,0,8.67.84,1.35,1.35,0,0,0,1.24-.52,1,1,0,0,0,0-.8,2.36,2.36,0,0,0-1.39-1.24c-.77-.33-1.56-.59-2.32-1A4.53,4.53,0,0,1,125.27,205.74Z" transform="translate(-28.85 -15.5)" fill="#a8d9f9"/><polygon points="113.68 185.99 112.74 193.13 115.74 193.42 118.85 185.81 113.68 185.99" fill="#fcbdba"/><path d="M244.49,101.84v22.07a10.94,10.94,0,0,1-10.94,10.94H169.5l-26,29.86V90.91h90a10.93,10.93,0,0,1,11,10.87Z" transform="translate(-28.85 -15.5)" fill="#020202" opacity="0.1" style="isolation:isolate"/><rect x="118.69" y="66.01" width="94.31" height="43.95" rx="10.93" fill="#fff"/><path d="M160.25,120a2.34,2.34,0,0,1-1.08-.17,2.48,2.48,0,0,1-1-1.63c-1.79-5.51-5.48-10.89-11-12.54-1.44,5.88-1.33,12-1.22,18.07,0,1.62.18,3.47,1.47,4.43a5,5,0,0,0,2.83.73A37.82,37.82,0,0,0,168.38,125c1.7-.84,5.18-4.13,1.94-5.2-1-.33-3.15.17-4.19.18Z" transform="translate(-28.85 -15.5)" fill="#020202" opacity="0.1" style="isolation:isolate"/><circle cx="211.26" cy="65.86" r="7.88" fill="#a8d9f9"/><circle cx="211.26" cy="65.86" r="7.88" fill="#020202" opacity="0.28" style="isolation:isolate"/><path d="M168.33,95.55h51.21a2.17,2.17,0,0,1,2.17,2.17h0a2.17,2.17,0,0,1-2.17,2.17H168.33a2.17,2.17,0,0,1-2.17-2.17h0A2.17,2.17,0,0,1,168.33,95.55Z" transform="translate(-28.85 -15.5)" fill="#a8d9f9"/><rect x="137.31" y="91.62" width="55.55" height="4.34" rx="2.17" fill="#a8d9f9"/><polygon points="93.36 134.19 97.81 158.97 93.36 185.63 100.58 186.18 111.1 156.16 107.53 132.37 93.36 134.19" fill="#473f47"/><polygon points="118.28 132.37 126.3 165.35 119.81 188.07 113.4 187.74 114.29 168.36 102.98 137.04 118.28 132.37" fill="#473f47"/><path d="M169.25,120.52a12.63,12.63,0,0,1,3.07-1.31,1.15,1.15,0,0,1,1.05.07,1,1,0,0,1,.31.59,3.61,3.61,0,0,1-.17,2.18,22.9,22.9,0,0,0,3.8,1.66,2,2,0,0,1,1.35.89,1.28,1.28,0,0,1-.39,1.39,3,3,0,0,1-1.38.62c-3.3.77-8.67,0-9.45-3.94-.17-.86.14-1,.83-1.51C168.59,120.93,168.91,120.72,169.25,120.52Z" transform="translate(-28.85 -15.5)" fill="#fcbdba"/><path d="M144.42,90.08a14.12,14.12,0,0,1,1.43,4.79,4.83,4.83,0,0,1-1.93,4.38,5.62,5.62,0,0,0-1.14.72c-1.2,1.24.18,3.49-.52,5.09a2.37,2.37,0,0,1-3,1.11,4,4,0,0,1-2.22-2.63,12.28,12.28,0,0,1-.41-3.57l-.12-7.17a9.24,9.24,0,0,1,.72-4.67,4.68,4.68,0,0,1,4.3-2.34C143.31,86.05,143.82,88.67,144.42,90.08Z" transform="translate(-28.85 -15.5)" fill="#fcbdba"/><path d="M169.42,125.85s-13.74,12.27-14.72,12.27-7.07-7.71-7.07-7.71l-.5,17.46a41.94,41.94,0,0,1-5.29,2.62c-3,1.22-6.73,2.35-10,2-6.68-.61-9.62-2.85-9.62-2.85l4.11-41.13s7.78-5.59,10.44-4.74a16.33,16.33,0,0,0,5.75,0c3.84-.51,7.77,4.74,7.77,4.74l5.1,16.78,12-4.26A4.61,4.61,0,0,1,169.42,125.85Z" transform="translate(-28.85 -15.5)" fill="#fff"/><path d="M145.94,82.36a4.11,4.11,0,0,0-.6-2.58c-.93-1.29-2.81-1.41-4.36-1.06a16.25,16.25,0,0,0-3.08,1.2,4.3,4.3,0,0,1-2.27.29,8.18,8.18,0,0,0-5.55,2.07c-2.08,2-2.58,4.91-2.79,7.65-.23,3.1,1.17,5.66,3.19,8,1.75,2.06,4.91,4.08,7.18,1.48a6.5,6.5,0,0,0,1.28-4.64,2.58,2.58,0,0,1-2.31-2,1.81,1.81,0,0,1,.61-1.84,1.45,1.45,0,0,1,2,.49,1.56,1.56,0,0,1,.14.33,8.1,8.1,0,0,0,.7-2.08c.27-.69,1.14-1.29,1.71-.83.33.27.53.84.95.75a.75.75,0,0,0,.35-.26,11.28,11.28,0,0,0,2.08-2.73,10,10,0,0,0,.77-3.78C145.93,82.69,145.94,82.52,145.94,82.36Z" transform="translate(-28.85 -15.5)" fill="#fc682d"/><path d="M118.94,80.8a7.11,7.11,0,0,0-7.19,3.81c-1.59,3.25-.45,7.08-.19,10.69a5.62,5.62,0,0,1-3.28,6.2c-2.55,1.53-5.47,2.56-7.51,4.73a10.54,10.54,0,0,0-2.68,6.46,5,5,0,0,0,.5,2.92,5.69,5.69,0,0,0,1.71,1.64,17.45,17.45,0,0,0,13.17,3.1c4.54-.93,8.63-4.45,9.59-9,1-4.8-1.43-9.57-2.35-14.38a4.33,4.33,0,0,1,.37-3.41c.76-1,2.18-1.26,3.27-1.91C130.33,88.14,123.32,81.42,118.94,80.8Z" transform="translate(-28.85 -15.5)" fill="#fc682d"/><rect x="96.23" y="69.97" width="4.63" height="4.63" rx="2.27" fill="#a8d9f9"/><path d="M145.46,207.86a2.46,2.46,0,0,1-.38-.41,1.26,1.26,0,0,1-1,.15l-1.5-.22a2.51,2.51,0,0,1-.77-.21h-.11l-.31.63a9.21,9.21,0,0,0-.86,3.53,32.1,32.1,0,0,0,8.69.65,1.31,1.31,0,0,0,1.22-.54,1,1,0,0,0,0-.8,2.41,2.41,0,0,0-1.41-1.21c-.78-.31-1.58-.56-2.34-.92A5.17,5.17,0,0,1,145.46,207.86Z" transform="translate(-28.85 -15.5)" fill="#a8d9f9"/><path d="M146.1,216.71h-4.6l-3.68,9.93h-19l3.68-9.93h-4.6L85.6,304h4.6l3.2-8.63h19L109.2,304h4.6l3.2-8.63h.13V295l28.73-77.62V304h4.61V216.71ZM136.56,230l-4.78,13h-19l4.8-13Zm-29.82,29.3,4.79-12.94h19l-4.79,12.94Zm17.73,3.39-4.78,12.94h-19l4.79-12.94ZM94.66,292l4.78-13h19l-4.8,13Z" transform="translate(-28.85 -15.5)" fill="#a8d9f9"/><path d="M146.1,216.71h-4.6l-3.68,9.93h-19l3.68-9.93h-4.6L85.6,304h4.6l3.2-8.63h19L109.2,304h4.6l3.2-8.63h.13V295l28.73-77.62V304h4.61V216.71ZM136.56,230l-4.78,13h-19l4.8-13Zm-29.82,29.3,4.79-12.94h19l-4.79,12.94Zm17.73,3.39-4.78,12.94h-19l4.79-12.94ZM94.66,292l4.78-13h19l-4.8,13Z" transform="translate(-28.85 -15.5)" fill="url(#linear-gradient)"/><rect x="173.52" y="142.61" width="79.4" height="56.23" rx="5.08" fill="#fff"/><rect x="130.16" y="149.21" width="36.35" height="5.55" rx="2.77" fill="#020202" opacity="0.1" style="isolation:isolate"/><rect x="130.16" y="160.22" width="36.35" height="5.55" rx="2.77" fill="#020202" opacity="0.1" style="isolation:isolate"/><rect x="130.16" y="171.23" width="36.35" height="5.55" rx="2.77" fill="#020202" opacity="0.1" style="isolation:isolate"/><polygon points="240.78 191.07 185.66 191.07 185.66 150.38 186.66 150.38 186.66 190.07 240.78 190.07 240.78 191.07" fill="#a8d9f9"/><polygon points="186.31 176.45 185.79 175.59 199.69 167.05 220.12 170.21 238.17 159.79 238.67 160.65 220.31 171.25 220.14 171.22 199.9 168.09 186.31 176.45" fill="#a8d9f9"/><circle cx="200.41" cy="167.67" r="2.18" fill="#a8d9f9"/><circle cx="220.22" cy="170.72" r="2.18" fill="#a8d9f9"/><circle cx="238.05" cy="160.55" r="2.18" fill="#a8d9f9"/><circle cx="200.41" cy="167.67" r="2.18" fill="#020202" opacity="0.28" style="isolation:isolate"/><circle cx="220.22" cy="170.72" r="2.18" fill="#020202" opacity="0.28" style="isolation:isolate"/><circle cx="238.05" cy="160.55" r="2.18" fill="#020202" opacity="0.28" style="isolation:isolate"/></svg>